<?xml version="1.0" encoding="UTF-8" standalone="no"?>
<svg
   xmlns:dc="http://purl.org/dc/elements/1.1/"
   xmlns:cc="http://creativecommons.org/ns#"
   xmlns:rdf="http://www.w3.org/1999/02/22-rdf-syntax-ns#"
   xmlns:svg="http://www.w3.org/2000/svg"
   xmlns="http://www.w3.org/2000/svg"
   xmlns:sodipodi="http://sodipodi.sourceforge.net/DTD/sodipodi-0.dtd"
   xmlns:inkscape="http://www.inkscape.org/namespaces/inkscape"
   id="Capa_1"
   viewBox="0 0 580 249.8744"
   width="1000"
   height="430.4559"
   preserveAspectRatio="none"
   version="1.1"
   sodipodi:docname="ucarecdn.svg"
   inkscape:version="0.92.4 (5da689c313, 2019-01-14)">
  <metadata
     id="metadata15">
    <rdf:RDF>
      <cc:Work
         rdf:about="">
        <dc:format>image/svg+xml</dc:format>
        <dc:type
           rdf:resource="http://purl.org/dc/dcmitype/StillImage" />
        <dc:title></dc:title>
      </cc:Work>
    </rdf:RDF>
  </metadata>
  <sodipodi:namedview
     pagecolor="#ffffff"
     bordercolor="#111111"
     borderopacity="1"
     objecttolerance="10"
     gridtolerance="10"
     guidetolerance="10"
     inkscape:pageopacity="0"
     inkscape:pageshadow="2"
     inkscape:window-width="1920"
     inkscape:window-height="1017"
     id="namedview13"
     showgrid="false"
     fit-margin-top="0"
     fit-margin-left="0"
     fit-margin-right="0"
     fit-margin-bottom="0"
     inkscape:zoom="0.78017448"
     inkscape:cx="438.16255"
     inkscape:cy="175.0597"
     inkscape:window-x="1912"
     inkscape:window-y="-8"
     inkscape:window-maximized="1"
     inkscape:current-layer="Capa_1" />
  <defs
     id="defs4">
    <style
       id="style2">.cls-1{fill:#e60000;}.cls-2{fill:#303030;}</style>
  </defs>
  <polygon
     class="cls-2"
     points="45.76,45.18 45.76,56.31 64.16,56.31 64.16,61.72 45.76,61.72 45.76,74.13 67.82,74.13 67.82,79.53 39.77,79.53 39.77,39.77 67.34,39.77 67.34,45.18 "
     id="polygon6"
     transform="matrix(6.121372,0,0,6.121372,-243.44696,-236.95831)"
     style="fill:#303030" />
  <path
     class="cls-1"
     d="m 320.63748,139.87335 c 4.52981,-11.01846 6.79472,-24.36306 6.79472,-39.911341 h 26.62797 c 0,23.567281 -4.83589,43.400531 -14.63008,59.377311 4.34617,4.10132 8.56992,6.91715 12.67124,8.44749 4.10132,1.53034 8.99842,2.26491 14.63008,2.26491 h 6.48865 v 24.66913 h -5.20316 c -5.38681,0 -10.16148,-0.18364 -14.2628,-0.67335 -4.10132,-0.4285 -7.89657,-1.28549 -11.38575,-2.57098 -3.48918,-1.28549 -6.73351,-2.99947 -9.73298,-5.20317 -2.99948,-2.14248 -6.30502,-4.89709 -9.73299,-8.14142 -15.11978,12.54881 -34.70817,18.85383 -58.76517,18.85383 -21.17994,0 -37.64643,-4.83589 -49.33826,-14.44644 -11.69182,-9.61056 -17.50712,-23.2 -17.50712,-40.70713 0,-12.30395 3.18311,-22.95514 9.54934,-31.83113 6.36623,-8.87599 16.83377,-17.078629 31.34143,-24.66913 -6.48866,-7.590502 -11.20212,-14.691293 -14.14037,-21.4248 -2.93826,-6.73351 -4.40739,-13.52823 -4.40739,-20.44538 0,-12.97731 4.40739,-23.44486 13.28338,-31.46386 C 241.79421,3.9789 253.48603,0 267.99368,0 c 14.50765,0 26.19947,3.91768 35.07546,11.69182 8.87599,7.77415 13.28338,18.18048 13.28338,31.15779 0,9.73298 -2.93826,18.42533 -8.75357,25.95462 -5.8153,7.590497 -15.48707,15.119784 -28.89287,22.710286 l 41.87018,48.358834 z m -66.84539,-36.66701 c -9.30448,4.77467 -16.03799,9.97783 -20.26174,15.6095 -4.22374,5.63166 -6.30501,12.24274 -6.30501,19.77203 0,10.83482 3.91768,19.28232 11.69182,25.4649 7.77414,6.18259 18.18048,9.24328 31.15778,9.24328 13.8343,0 25.4037,-3.79525 34.70818,-11.38576 l -50.92981,-58.76517 z m 10.03905,-28.89288 c 9.30449,-4.95831 15.79314,-9.73298 19.46597,-14.2628 3.67282,-4.52981 5.50923,-9.97783 5.50923,-16.22163 0,-6.91715 -1.7752,-12.18153 -5.32559,-15.73193 -3.5504,-3.55039 -8.63114,-5.32559 -15.11979,-5.32559 -6.48865,0 -11.63061,1.65277 -15.42586,5.01952 -3.79525,3.36676 -5.69287,8.08021 -5.69287,14.14037 0,4.52982 1.22427,9.30449 3.73403,14.2628 2.50977,4.95831 6.73351,11.01847 12.79367,18.180474 z"
     id="path8"
     inkscape:connector-curvature="0"
     style="fill:#e60000;stroke-width:6.12137222" />
  <polygon
     class="cls-2"
     points="128.42,39.77 134.52,39.77 120.68,79.53 113.47,79.53 99.58,39.77 106.04,39.77 117.23,72.91 "
     id="polygon10"
     transform="matrix(6.121372,0,0,6.121372,-243.44696,-236.95831)"
     style="fill:#303030" />
</svg>
